:FULLY-SPECIFIED
:FORCE-ALL-JOINTS-BE-3DOF
:DEGREES
1631
root -15.0228 14.5932 19.3955 699.825 -71.4165 380.433
lfemur 12.5586 -11.5885 -13.3979
ltibia 27.7564 0 0
lfoot -21.6293 29.2166 0
ltoes -44.1736 0 0
rfemur -52.6515 -14.2584 7.01882
rtibia 65.9397 0 0
rfoot -9.52138 10.5043 0
rtoes 5.54261 0 0
lowerback 12.9749 4.35581 -7.80434
upperback -0.259521 4.49635 -0.7815
thorax -8.12291 2.46025 2.64434
lowerneck 1.24256 -12.4128 -12.9593
upperneck 3.77715 -17.0693 10.0112
head 2.88723 -8.56822 4.38338
lclavicle -5.95326e-14 2.88375e-14 0
lhumerus -71.7208 -17.1884 104.183
lradius 104.177 0 0
lwrist 54.401 0 0
lhand -10.233 49.2235 0
lfingers 7.12502 0 0
lthumb 17.3949 79.2913 0
rclavicle -3.11123e-14 -1.25333e-14 0
rhumerus 46.6963 -3.64243 -54.89
rradius 18.9488 0 0
rwrist 19.6845 0 0
rhand -18.5856 -35.9962 0
rfingers 7.12502 0 0
rthumb 8.23848 -64.5567 0
1632
root -15.0357 14.5937 19.4003 700.229 -71.4713 380.015
lfemur 12.6283 -11.6016 -13.393
ltibia 27.553 0 0
lfoot -21.6475 29.276 0
ltoes -44.0394 0 0
rfemur -52.7215 -14.1288 7.04538
rtibia 65.9773 0 0
rfoot -9.5499 10.5165 0
rtoes 5.19959 0 0
lowerback 12.947 4.35756 -7.67367
upperback -0.267123 4.52505 -0.747422
thorax -8.11039 2.47018 2.60355
lowerneck 1.34969 -12.4207 -13.4406
upperneck 3.76361 -17.1379 10.6832
head 2.97473 -8.60319 4.64446
lclavicle -5.38218e-14 2.81246e-14 0
lhumerus -71.7517 -17.2029 104.208
lradius 104.144 0 0
lwrist 54.4337 0 0
lhand -10.9747 49.093 0
lfingers 7.12502 0 0
lthumb 16.9958 79.1454 0
rclavicle -3.19894e-14 -1.23644e-14 0
rhumerus 46.7069 -3.71069 -54.9385
rradius 18.9466 0 0
rwrist 19.3406 0 0
rhand -18.6023 -36.0577 0
rfingers 7.12502 0 0
rthumb 8.25913 -64.4402 0
1633
root -15.0474 14.592 19.4064 700.371 -71.511 379.855
lfemur 12.6981 -11.6147 -13.388
ltibia 27.3497 0 0
lfoot -21.6658 29.3354 0
ltoes -43.9051 0 0
rfemur -52.7915 -13.9992 7.07194
rtibia 66.015 0 0
rfoot -9.57843 10.5286 0
rtoes 4.85658 0 0
lowerback 12.9396 4.34047 -7.66466
upperback -0.289148 4.50864 -0.697327
thorax -8.13177 2.46472 2.65511
lowerneck 1.27267 -12.5014 -13.1504
upperneck 3.84271 -17.2205 10.3426
head 2.96526 -8.64256 4.49177
lclavicle -4.81111e-14 2.74117e-14 0
lhumerus -71.7825 -17.2174 104.233
lradius 104.11 0 0
lwrist 54.4664 0 0
lhand -11.7165 48.9625 0
lfingers 7.12502 0 0
lthumb 16.5966 78.9996 0
rclavicle -3.28666e-14 -1.21954e-14 0
rhumerus 46.7174 -3.77895 -54.9871
rradius 18.9443 0 0
rwrist 18.9966 0 0
rhand -18.619 -36.1192 0
rfingers 7.12502 0 0
rthumb 8.27978 -64.3236 0
1634
root -15.0506 14.5889 19.4039 700.671 -71.4081 379.645
lfemur 12.7679 -11.6279 -13.3831
ltibia 27.1463 0 0
lfoot -21.684 29.3948 0
ltoes -43.7709 0 0
rfemur -52.8614 -13.8697 7.09851
rtibia 66.0526 0 0
rfoot -9.60696 10.5408 0
rtoes 4.51357 0 0
lowerback 12.9721 4.29215 -7.71634
upperback -0.357169 4.43358 -0.67343
thorax -8.22223 2.43553 2.72051
lowerneck 1.21641 -12.6387 -12.6357
upperneck 3.7891 -17.3639 9.86461
head 2.88745 -8.71141 4.27119
lclavicle -4.24003e-14 2.66988e-14 0
lhumerus -71.8134 -17.2319 104.259
lradius 104.076 0 0
lwrist 54.4991 0 0
lhand -12.4582 48.832 0
lfingers 7.12502 0 0
lthumb 16.1975 78.8537 0
rclavicle -3.37437e-14 -1.20265e-14 0
rhumerus 46.728 -3.84721 -55.0357
rradius 18.9421 0 0
rwrist 18.6527 0 0
rhand -18.6357 -36.1807 0
rfingers 7.12502 0 0
rthumb 8.30043 -64.2071 0
